<?xml version="1.0" encoding="UTF-8" standalone="no"?>
<svg width="48px" height="48px" viewBox="0 0 48 48" version="1.1" xmlns="http://www.w3.org/2000/svg" xmlns:xlink="http://www.w3.org/1999/xlink">
    <!-- Generator: Sketch 41.2 (35397) - http://www.bohemiancoding.com/sketch -->
    <title>xianjin</title>
    <desc>Created with Sketch.</desc>
    <defs></defs>
    <g id="Page-1" stroke="none" stroke-width="1" fill="none" fill-rule="evenodd">
        <g id="xianjin">
            <g id="052" transform="translate(1.000000, 1.000000)">
                <g id="Layer_1">
                    <g id="Group">
                        <polyline id="Shape" stroke="#4990E2" stroke-width="2" points="25.451 20.516 17.005 25.154 0 14.539 29.649 0 46 9.231 37.33 13.992"></polyline>
                        <polyline id="Shape" stroke="#4990E2" stroke-width="2" points="25.226 25.718 17.005 30.231 0 19.617 4.479 17.42"></polyline>
                        <polyline id="Shape" stroke="#4990E2" stroke-width="2" points="41.288 11.647 46 14.308 37.352 19.058"></polyline>
                        <polyline id="Shape" stroke="#4990E2" stroke-width="2" points="25.373 30.892 17.005 35.488 0 24.872 4.479 22.675"></polyline>
                        <polyline id="Shape" stroke="#4990E2" stroke-width="2" points="41.288 16.903 46 19.564 37.372 24.303"></polyline>
                        <polyline id="Shape" stroke="#4990E2" stroke-width="2" points="25.179 36.255 17.005 40.743 0 30.128 4.479 27.932"></polyline>
                        <polyline id="Shape" stroke="#4990E2" stroke-width="2" points="41.288 22.159 46 24.819 37.71 29.373"></polyline>
                        <polyline id="Shape" stroke="#4990E2" stroke-width="2" points="41.288 27.415 46 30.075 17.005 46 0 35.384 4.479 33.188"></polyline>
                        <polyline id="Shape" stroke="#4990E2" stroke-width="2" points="37.366 34.817 37.366 13.822 21.863 3.774"></polyline>
                        <polyline id="Shape" stroke="#4990E2" stroke-width="2" points="25.36 41.349 25.36 20.353 9.352 9.954"></polyline>
                        <path d="M28.136,14.05 C29.276,12.987 28.962,11.872 27.839,11.206 C26.573,10.455 25.137,10.48 23.157,11.046 C21.478,11.519 20.61,11.63 19.871,11.192 C19.303,10.855 19.038,10.209 20.072,9.52 C20.931,8.949 21.796,8.768 22.248,8.682 L21.644,7.902 C21.014,8.018 20.235,8.249 19.402,8.768 L18.023,7.95 L17.19,8.502 L18.626,9.354 C17.604,10.302 17.708,11.361 18.888,12.06 C20.124,12.795 21.623,12.62 23.563,12.047 C24.983,11.639 25.989,11.578 26.771,12.041 C27.582,12.522 27.52,13.296 26.567,13.931 C25.814,14.431 24.846,14.735 24.021,14.854 L24.651,15.633 C25.477,15.531 26.54,15.148 27.333,14.638 L28.77,15.49 L29.615,14.928 L28.136,14.05 Z" id="Shape" fill="#4990E2"></path>
                    </g>
                </g>
            </g>
        </g>
    </g>
</svg>