<?xml version="1.0" encoding="UTF-8" standalone="no"?>
<svg width="254px" height="254px" viewBox="0 0 254 254" version="1.1" xmlns="http://www.w3.org/2000/svg" xmlns:xlink="http://www.w3.org/1999/xlink">
    <!-- Generator: Sketch 41.2 (35397) - http://www.bohemiancoding.com/sketch -->
    <title>86</title>
    <desc>Created with Sketch.</desc>
    <defs></defs>
    <g id="Page-1" stroke="none" stroke-width="1" fill="none" fill-rule="evenodd">
        <g id="86">
            <g id="Group">
                <path d="M242.9,178.9 C250,163.1 254,145.5 254,127 C254,56.9 197.1,0 127,0 C56.9,0 0,56.9 0,127 C0,145.5 4,163.1 11.1,178.9 C14.1,185.6 17.6,191.9 21.7,197.9 L232.4,197.9 C236.4,191.9 240,185.6 242.9,178.9 Z" id="Shape" fill="#37B199"></path>
                <path d="M21.6,197.9 C44.4,231.7 83.1,254 127,254 C170.9,254 209.6,231.7 232.4,197.9 L21.6,197.9 Z" id="Shape" fill="#BCBFC2"></path>
                <rect id="Rectangle-path" fill="#FFE7BB" x="36.8" y="75.9" width="180.4" height="122"></rect>
                <rect id="Rectangle-path" fill="#E0B46D" x="31.4" y="75.9" width="191.2" height="7.3"></rect>
                <rect id="Rectangle-path" fill="#92713E" x="36.8" y="110.2" width="180.4" height="14.1"></rect>
                <polygon id="Shape" fill="#BF4028" points="230.3 161.1 23.7 161.1 36.8 149.6 217.2 149.6"></polygon>
                <rect id="Rectangle-path" fill="#6F8DAF" x="61.7" y="85.8" width="27.5" height="20.5"></rect>
                <rect id="Rectangle-path" fill="#6F8DAF" x="113.3" y="85.8" width="27.5" height="20.5"></rect>
                <rect id="Rectangle-path" fill="#6F8DAF" x="164.8" y="85.8" width="27.5" height="20.5"></rect>
                <rect id="Rectangle-path" fill="#6F8DAF" x="45.8" y="127.4" width="27.2" height="18.8"></rect>
                <rect id="Rectangle-path" fill="#6F8DAF" x="79.6" y="127.4" width="27.2" height="18.8"></rect>
                <rect id="Rectangle-path" fill="#6F8DAF" x="113.4" y="127.4" width="27.2" height="18.8"></rect>
                <rect id="Rectangle-path" fill="#6F8DAF" x="147.2" y="127.4" width="27.2" height="18.8"></rect>
                <rect id="Rectangle-path" fill="#6F8DAF" x="181" y="127.4" width="27.2" height="18.8"></rect>
                <rect id="Rectangle-path" fill="#6F8DAF" x="45.8" y="166.6" width="27.2" height="18.8"></rect>
                <rect id="Rectangle-path" fill="#6F8DAF" x="79.6" y="166.6" width="27.2" height="18.8"></rect>
                <rect id="Rectangle-path" fill="#6F8DAF" x="113.4" y="166.6" width="27.2" height="31.3"></rect>
                <rect id="Rectangle-path" fill="#6F8DAF" x="147.2" y="166.6" width="27.2" height="18.8"></rect>
                <rect id="Rectangle-path" fill="#6F8DAF" x="181" y="166.6" width="27.2" height="18.8"></rect>
                <rect id="Rectangle-path" fill="#FFE7BB" x="77.4" y="46.5" width="99.2" height="29.3"></rect>
                <rect id="Rectangle-path" fill="#E0B46D" x="73.7" y="41.3" width="106.6" height="5.2"></rect>
                <rect id="Rectangle-path" fill="#6F8DAF" x="84.9" y="50.9" width="11.8" height="20.5"></rect>
                <rect id="Rectangle-path" fill="#6F8DAF" x="103" y="50.9" width="11.8" height="20.5"></rect>
                <rect id="Rectangle-path" fill="#6F8DAF" x="121.1" y="50.9" width="11.8" height="20.5"></rect>
                <rect id="Rectangle-path" fill="#6F8DAF" x="139.2" y="50.9" width="11.8" height="20.5"></rect>
                <rect id="Rectangle-path" fill="#6F8DAF" x="157.3" y="50.9" width="11.8" height="20.5"></rect>
                <rect id="Rectangle-path" fill="#537393" x="110.4" y="197.9" width="33.3" height="3.3"></rect>
                <rect id="Rectangle-path" fill="#36576E" x="107.8" y="201.2" width="38.5" height="4"></rect>
                <rect id="Rectangle-path" fill="#234354" x="104.5" y="205.2" width="45.1" height="4.7"></rect>
            </g>
            <text id="Beauty-Parlor" font-family="Arial-BoldMT, Arial" font-size="13" font-weight="bold" fill="#C4AE8C">
                <tspan x="84" y="121">Beauty Parlor</tspan>
            </text>
        </g>
    </g>
</svg>