<?xml version="1.0" encoding="UTF-8" standalone="no"?>
<svg width="96px" height="96px" viewBox="0 0 96 96" version="1.1" xmlns="http://www.w3.org/2000/svg" xmlns:xlink="http://www.w3.org/1999/xlink">
    <!-- Generator: Sketch 41.2 (35397) - http://www.bohemiancoding.com/sketch -->
    <title>prod02</title>
    <desc>Created with Sketch.</desc>
    <defs>
        <rect id="path-1" x="17" y="33.537008" width="62" height="12.8661417" rx="2"></rect>
        <mask id="mask-2" maskContentUnits="userSpaceOnUse" maskUnits="objectBoundingBox" x="0" y="0" width="62" height="12.8661417" fill="white">
            <use xlink:href="#path-1"></use>
        </mask>
    </defs>
    <g id="Page-1" stroke="none" stroke-width="1" fill="none" fill-rule="evenodd">
        <g id="prod02">
            <path d="M91.8047244,67.615748 C94.488189,61.6440945 96,54.992126 96,48 C96,21.5055118 74.4944882,0 48,0 C21.5055118,0 0,21.5055118 0,48 C0,54.992126 1.51181102,61.6440945 4.19527559,67.615748 C5.32913386,70.1480315 6.6519685,72.5291339 8.2015748,74.7968504 L87.8362205,74.7968504 C89.3480315,72.5291339 90.7086614,70.1480315 91.8047244,67.615748 Z" id="Shape" fill="#37B199"></path>
            <path d="M8.16377953,74.7968504 C16.7811024,87.5716535 31.407874,96 48,96 C64.592126,96 79.2188976,87.5716535 87.8362205,74.7968504 L8.16377953,74.7968504 Z" id="Shape" fill="#BCBFC2"></path>
            <rect id="Rectangle-path" fill="#FFE7BB" x="13.9086614" y="28.6866142" width="68.1826772" height="46.1102362"></rect>
            <rect id="Rectangle-path" fill="#E0B46D" x="11.8677165" y="28.6866142" width="72.2645669" height="2.75905512"></rect>
            <polygon id="Shape" fill="#BF4028" points="87.0425197 60.888189 8.95748031 60.888189 13.9086614 56.5417323 82.0913386 56.5417323"></polygon>
            <rect id="Rectangle-path" fill="#6F8DAF" x="17.3102362" y="48.1511811" width="10.280315" height="7.10551181"></rect>
            <rect id="Rectangle-path" fill="#6F8DAF" x="30.0850394" y="48.1511811" width="10.280315" height="7.10551181"></rect>
            <rect id="Rectangle-path" fill="#6F8DAF" x="42.8598425" y="48.1511811" width="10.280315" height="7.10551181"></rect>
            <rect id="Rectangle-path" fill="#6F8DAF" x="55.6346457" y="48.1511811" width="10.280315" height="7.10551181"></rect>
            <rect id="Rectangle-path" fill="#6F8DAF" x="68.4094488" y="48.1511811" width="10.280315" height="7.10551181"></rect>
            <rect id="Rectangle-path" fill="#6F8DAF" x="17.3102362" y="62.9669291" width="10.280315" height="7.10551181"></rect>
            <rect id="Rectangle-path" fill="#6F8DAF" x="30.0850394" y="62.9669291" width="10.280315" height="7.10551181"></rect>
            <rect id="Rectangle-path" fill="#6F8DAF" x="42.8598425" y="62.9669291" width="10.280315" height="11.8299213"></rect>
            <rect id="Rectangle-path" fill="#6F8DAF" x="55.6346457" y="62.9669291" width="10.280315" height="7.10551181"></rect>
            <rect id="Rectangle-path" fill="#6F8DAF" x="68.4094488" y="62.9669291" width="10.280315" height="7.10551181"></rect>
            <rect id="Rectangle-path" fill="#FFE7BB" x="29.2535433" y="17.5748031" width="37.4929134" height="11.0740157"></rect>
            <rect id="Rectangle-path" fill="#E0B46D" x="27.8551181" y="15.6094488" width="40.2897638" height="1.96535433"></rect>
            <rect id="Rectangle-path" fill="#6F8DAF" x="32.088189" y="19.2377953" width="4.45984252" height="7.7480315"></rect>
            <rect id="Rectangle-path" fill="#6F8DAF" x="38.9291339" y="19.2377953" width="4.45984252" height="7.7480315"></rect>
            <rect id="Rectangle-path" fill="#6F8DAF" x="45.7700787" y="19.2377953" width="4.45984252" height="7.7480315"></rect>
            <rect id="Rectangle-path" fill="#6F8DAF" x="52.6110236" y="19.2377953" width="4.45984252" height="7.7480315"></rect>
            <rect id="Rectangle-path" fill="#6F8DAF" x="59.4519685" y="19.2377953" width="4.45984252" height="7.7480315"></rect>
            <rect id="Rectangle-path" fill="#537393" x="41.7259843" y="74.7968504" width="12.5858268" height="1.24724409"></rect>
            <rect id="Rectangle-path" fill="#36576E" x="40.7433071" y="76.0440945" width="14.5511811" height="1.51181102"></rect>
            <rect id="Rectangle-path" fill="#234354" x="39.496063" y="77.5559055" width="17.0456693" height="1.77637795"></rect>
            <path d="M21.8129883,43 L21.8129883,36.4960938 L24.2475586,36.4960938 C25.5688543,36.4960938 26.2294922,37.033686 26.2294922,38.1088867 C26.2294922,38.5102559 26.1174328,38.8757308 25.8933105,39.2053223 C25.6691883,39.5349138 25.3608418,39.7875968 24.9682617,39.9633789 L27.0952148,43 L25.4472656,43 L23.8344727,40.3413086 L23.0874023,40.3413086 L23.0874023,43 L21.8129883,43 Z M23.0874023,39.4492188 L23.3994141,39.4492188 C24.3808643,39.4492188 24.871582,39.0522501 24.871582,38.2583008 C24.871582,37.6782198 24.4335981,37.3881836 23.5576172,37.3881836 L23.0874023,37.3881836 L23.0874023,39.4492188 Z M28.0224609,43 L28.0224609,36.4960938 L32.0874023,36.4960938 L32.0874023,37.3881836 L29.3759766,37.3881836 L29.3759766,39.203125 L31.5996094,39.203125 L31.5996094,40.0732422 L29.3759766,40.0732422 L29.3759766,42.0771484 L32.2939453,42.0771484 L32.2939453,43 L28.0224609,43 Z M33.0629883,42.9428711 L33.0629883,41.8266602 C33.7631871,42.1196304 34.3623022,42.2661133 34.8603516,42.2661133 C35.2089861,42.2661133 35.4836416,42.1884773 35.6843262,42.0332031 C35.8850108,41.8779289 35.9853516,41.6669935 35.9853516,41.4003906 C35.9853516,41.1894521 35.9223639,41.0114753 35.7963867,40.8664551 C35.6704095,40.7214348 35.4316424,40.5493174 35.0800781,40.3500977 L34.6450195,40.1083984 C34.0620088,39.7802718 33.6503918,39.466066 33.4101562,39.1657715 C33.1699207,38.865477 33.0498047,38.5146504 33.0498047,38.1132812 C33.0498047,37.5771458 33.2468242,37.146486 33.6408691,36.8212891 C34.0349141,36.4960921 34.5556608,36.3334961 35.203125,36.3334961 C35.7216823,36.3334961 36.3061491,36.4082024 36.956543,36.5576172 L36.956543,37.5991211 C36.2915006,37.3500964 35.7656269,37.2255859 35.3789062,37.2255859 C35.0800766,37.2255859 34.8405771,37.2922357 34.6604004,37.4255371 C34.4802237,37.5588386 34.3901367,37.7338856 34.3901367,37.9506836 C34.3901367,38.1293954 34.4531244,38.2861321 34.5791016,38.4208984 C34.7050788,38.5556647 34.9423811,38.7211904 35.2910156,38.9174805 L35.7568359,39.1767578 C36.3837922,39.5283221 36.8159168,39.8520493 37.0532227,40.1479492 C37.2905285,40.4438491 37.4091797,40.8041971 37.4091797,41.2290039 C37.4091797,41.8325225 37.1850608,42.3056623 36.7368164,42.6484375 C36.288572,42.9912127 35.6704141,43.1625977 34.8823242,43.1625977 C34.3608372,43.1625977 33.754398,43.0893562 33.0629883,42.9428711 Z M40.1821289,43 L40.1821289,37.3881836 L37.8530273,37.3881836 L37.8530273,36.4960938 L43.8691406,36.4960938 L43.8691406,37.3881836 L41.5400391,37.3881836 L41.5400391,43 L40.1821289,43 Z M44.7260742,36.4960938 L46.0795898,36.4960938 L46.0795898,40.4819336 C46.0795898,41.1118196 46.1835927,41.566649 46.3916016,41.8464355 C46.5996104,42.1262221 46.9350563,42.2661133 47.3979492,42.2661133 C47.8403342,42.2661133 48.1603994,42.1328138 48.3581543,41.8662109 C48.5559092,41.599608 48.6547852,41.1704131 48.6547852,40.5786133 L48.6547852,36.4960938 L49.8325195,36.4960938 L49.8325195,40.4907227 C49.8325195,41.0913116 49.7753912,41.5490707 49.6611328,41.8640137 C49.5468744,42.1789567 49.3388687,42.4521473 49.0371094,42.6835938 C48.6240214,43.0029313 48.0688511,43.1625977 47.371582,43.1625977 C46.624508,43.1625977 46.0239281,42.9926775 45.5698242,42.652832 C45.2563461,42.4184559 45.0373541,42.1408707 44.9128418,41.8200684 C44.7883295,41.499266 44.7260742,41.0517607 44.7260742,40.4775391 L44.7260742,36.4960938 Z M51.4057617,43 L51.4057617,36.4960938 L53.840332,36.4960938 C55.1616277,36.4960938 55.8222656,37.033686 55.8222656,38.1088867 C55.8222656,38.5102559 55.7102062,38.8757308 55.486084,39.2053223 C55.2619618,39.5349138 54.9536152,39.7875968 54.5610352,39.9633789 L56.6879883,43 L55.0400391,43 L53.4272461,40.3413086 L52.6801758,40.3413086 L52.6801758,43 L51.4057617,43 Z M52.6801758,39.4492188 L52.9921875,39.4492188 C53.9736377,39.4492188 54.4643555,39.0522501 54.4643555,38.2583008 C54.4643555,37.6782198 54.0263716,37.3881836 53.1503906,37.3881836 L52.6801758,37.3881836 L52.6801758,39.4492188 Z M57.6152344,43 L57.6152344,36.4960938 L61.6801758,36.4960938 L61.6801758,37.3881836 L58.96875,37.3881836 L58.96875,39.203125 L61.1923828,39.203125 L61.1923828,40.0732422 L58.96875,40.0732422 L58.96875,42.0771484 L61.8867188,42.0771484 L61.8867188,43 L57.6152344,43 Z M63.0205078,43 L63.0205078,36.4960938 L64.2114258,36.4960938 L67.2260742,40.9389648 L67.2260742,36.4960938 L68.3115234,36.4960938 L68.3115234,43 L67.0986328,43 L64.105957,38.5571289 L64.105957,43 L63.0205078,43 Z M71.550293,43 L71.550293,37.3881836 L69.2211914,37.3881836 L69.2211914,36.4960938 L75.2373047,36.4960938 L75.2373047,37.3881836 L72.9082031,37.3881836 L72.9082031,43 L71.550293,43 Z" id="RESTURENT" fill="#8C672B"></path>
            <use id="Rectangle" stroke="#417505" mask="url(#mask-2)" stroke-width="2" xlink:href="#path-1"></use>
        </g>
    </g>
</svg>