<svg width="96px" height="96px" viewBox="0 0 96 96" version="1.1" xmlns="http://www.w3.org/2000/svg" xmlns:xlink="http://www.w3.org/1999/xlink">
    <g id="prod03" stroke="none" stroke-width="1" fill="none" fill-rule="evenodd" transform="translate(-6.000000, 0.000000)">
        <g id="Group">
            <path d="M102,47.9146667 C102,54.4426667 100.72,60.672 98.3733333,66.3466667 C95.0026667,74.4533333 89.4986667,81.4506667 82.544,86.6133333 C78.3626667,89.728 73.6266667,92.16 68.5493333,93.7813333 C68.5493333,93.7813333 68.5493333,93.7813333 68.5066667,93.7813333 C63.9413333,95.232 59.12,96 54.0853333,96 C50.4586667,96 46.9173333,95.616 43.5466667,94.848 L43.5466667,94.848 C38.8106667,93.7813333 34.3306667,92.032 30.2346667,89.6853333 C29.9786667,89.5573333 29.7653333,89.3866667 29.5093333,89.2586667 C28.528,88.6613333 27.5466667,88.064 26.608,87.3813333 C25.1146667,86.3573333 23.664,85.2053333 22.3413333,84.0106667 C22.2133333,83.8826667 22.0853333,83.7973333 21.9573333,83.6693333 C21.6586667,83.4133333 21.36,83.1146667 21.0613333,82.8586667 C18.7146667,80.64 16.624,78.208 14.7893333,75.6053333 C14.2773333,74.9226667 13.808,74.1973333 13.3813333,73.472 C12.8266667,72.6186667 12.3573333,71.7653333 11.888,70.8693333 C8.77333333,65.1093333 6.768,58.6666667 6.256,51.7973333 C6.21333333,51.2 6.17066667,50.56 6.128,49.9626667 C6,49.3226667 6,48.7253333 6,48.0853333 C6,41.7706667 7.19466667,35.7973333 9.41333333,30.2506667 C16.4533333,12.544 33.7333333,0.0426666667 53.9146667,0 C67.1413333,0 79.1306667,5.29066667 87.792,13.952 C91.8453333,18.0053333 95.1733333,22.7413333 97.6053333,27.9893333 C100.421333,34.048 102,40.832 102,47.9146667 Z" id="Shape" fill="#87CFE1"></path>
            <path d="M32.9671845,36.9955145 C32.7959074,37.3112099 32.6246303,37.5982058 32.3677146,37.8565021 C32.3106223,37.9139012 32.2535299,37.9713004 32.1678914,38 L0.224712862,38 C-0.117841331,36.7659178 -0.0892951484,35.4457368 0.453082324,34.2977533 C0.938367431,33.2358686 1.79475291,32.4035806 2.70823076,31.7147905 C3.02223877,31.4851938 3.33624678,31.2555971 3.4789777,30.8825025 C3.59316243,30.5955066 3.56461624,30.2798112 3.56461624,29.9928153 C3.53607006,29.2179265 3.56461624,28.3282393 4.16408608,27.8403463 C5.10611011,27.0367579 6.59051162,27.8690459 7.81799748,27.6394492 C7.96072839,27.6107496 8.13200549,27.5533505 8.24619022,27.4385521 C8.41746731,27.2663546 8.41746731,27.0080583 8.41746731,26.749762 C8.50310586,25.1138856 9.44512989,23.5354083 10.8438928,22.7031203 C12.2426558,21.8708323 14.0696115,21.7560339 15.5254668,22.4735236 C16.3247599,22.8466182 17.0098683,23.42061 17.6664305,23.9946017 C18.2659004,24.5111943 18.8653702,24.9990872 19.4362939,25.5156798 C19.921579,25.917474 20.4639564,26.3479678 21.0634263,26.3192682 C21.491619,26.2905686 21.8627194,26.0609719 22.2338198,25.917474 C23.3185747,25.4869802 24.5460606,25.6304781 25.6022693,26.1183711 C26.6584781,26.6062641 27.5434098,27.3811529 28.3141567,28.2421405 C28.5710723,28.5291364 28.8565342,28.8448319 29.2276345,29.0170294 C29.4845502,29.1318277 29.7985582,29.1318277 30.08402,29.1892269 C32.3106223,29.5049223 34.1090318,31.6860909 33.9948471,33.9533583 C33.9377547,35.015243 33.4810158,36.0484281 32.9671845,36.9955145 Z" id="Shape" fill="#F7F8F9" opacity="0.5">
			<animateTransform attributeName="transform"
                          attributeType="XML"
                          type="translate"
                          from="-30 0"
                          to="97 0"
                          dur="7s"
                          repeatCount="indefinite"/>
			
			</path>
			
    <path d="M27.2709538,13.6144023 C27.1500523,13.8372462 27.0291508,14.0398315 26.8477986,14.2221583 C26.8074981,14.2626754 26.7671976,14.3031924 26.7067468,14.3234509 L4.15862084,14.3234509 C3.91681788,13.4523341 3.93696813,12.5204416 4.31982282,11.7101003 C4.66237701,10.9605347 5.26688441,10.3730373 5.9116923,9.88683249 C6.13334502,9.72476424 6.35499773,9.56269598 6.45574896,9.29933507 C6.53634995,9.09674975 6.5161997,8.8739059 6.5161997,8.67132059 C6.49604946,8.12434023 6.5161997,7.49632574 6.93935488,7.1519307 C7.60431302,6.58469181 8.65212585,7.17218924 9.51858645,7.01012098 C9.61933769,6.98986245 9.74023917,6.94934539 9.82084015,6.86831126 C9.94174163,6.74676007 9.94174163,6.56443328 9.94174163,6.3821065 C10.0021924,5.22737019 10.6671505,4.11315094 11.6545126,3.52565352 C12.6418747,2.9381561 13.9314905,2.85712197 14.959153,3.36358526 C15.52336,3.62694618 16.0069659,4.03211681 16.4704215,4.43728745 C16.8935767,4.80194102 17.3167319,5.14633606 17.7197368,5.51098963 C18.062291,5.79460908 18.4451457,6.09848705 18.8683009,6.07822852 C19.1705546,6.05796999 19.4325078,5.89590173 19.694461,5.79460908 C20.4601704,5.4907311 21.326631,5.59202376 22.0721901,5.9364188 C22.8177492,6.28081384 23.4424069,6.8277942 23.9864636,7.43555015 C24.1678158,7.63813547 24.3693182,7.86097932 24.6312714,7.98253051 C24.8126237,8.06356463 25.0342764,8.06356463 25.2357788,8.1040817 C26.8074981,8.32692555 28.0769636,9.86657396 27.9963626,11.466998 C27.9560621,12.2165636 27.6336582,12.9458708 27.2709538,13.6144023 Z" id="Shape" stroke="none" fill="#F7F8F9" fill-rule="evenodd" opacity="0.641557836">
			 <animateTransform attributeName="transform"
                          attributeType="XML"
                          type="translate"
                          from="90 10"
                          to="-10 0"
                          dur="9s"
                          repeatCount="indefinite"/>
			
			</path>
			 
            <path d="M17.904,79.6586667 C13.936,75.136 10.7786667,69.8453333 8.73066667,64.0426667 L8.73066667,60.416 L11.2053333,60.416 L11.2053333,54.8266667 L17.9466667,54.8266667" id="Shape" fill="#7EC7DB"></path>
            <path d="M17.904,60.928 L20.72,60.928 L20.8053333,40.448 L27.5466667,36.096 L33.8613333,40.32 L33.8613333,91.52 C33.4773333,91.3493333 33.0506667,91.136 32.6666667,90.9653333 C30.576,89.8986667 28.5706667,88.7466667 26.6506667,87.3813333 C23.4506667,85.1626667 20.5493333,82.56 17.9893333,79.6586667" id="Shape" fill="#7EC7DB"></path>
            <path d="M94.4053333,44.0746667 L94.4053333,73.8986667 C92.4426667,76.9706667 90.1386667,79.744 87.5786667,82.304 C86.5973333,83.2853333 85.5306667,84.224 84.464,85.12 C84.208,85.3333333 83.952,85.5466667 83.696,85.7173333 C82.9706667,86.3146667 82.2026667,86.8693333 81.4346667,87.3813333 C80.4533333,88.064 79.472,88.704 78.448,89.3013333 L78.448,64.64 L81.264,64.64 L81.3493333,44.16 L88.0906667,39.808 L94.4053333,44.0746667 Z" id="Shape" fill="#7CC6DA"></path>
            <path d="M31.344,62.464 L31.344,90.3253333 C29.7226667,89.4293333 28.144,88.4906667 26.608,87.424 C23.536,85.2906667 20.72,82.816 18.2453333,80.0426667 L18.3306667,62.592 L25.0293333,58.24 L31.344,62.464 Z" id="Shape" fill="#70C5D6"></path>
            <rect id="Rectangle-path" fill="#087AA3" x="48.9226667" y="30.8053333" width="14.208" height="2.90133333"></rect>
            <path d="M77.2533333,47.232 L77.2533333,89.0453333 L77.2533333,89.0453333 L77.2533333,89.984 C75.5893333,90.9226667 73.8826667,91.7333333 72.0906667,92.4586667 C71.3226667,92.8 70.512,93.056 69.744,93.3546667 C68.976,93.6106667 68.1653333,93.8666667 67.3546667,94.1226667 L67.3546667,53.248 L70.0426667,53.248 L70.0426667,47.232 L77.2533333,47.232 Z" id="Shape" fill="#846715" opacity="0.11">
			</path>
            <path d="M68.464,33.92 L82.5013333,33.92 L82.5013333,86.6133333 C78.32,89.728 73.584,92.16 68.5066667,93.7813333" id="Shape" fill="#0B91C1"></path>
            <path d="M68.464,93.7813333 C63.8986667,95.232 59.0773333,96 54.0426667,96 C50.416,96 46.8746667,95.616 43.504,94.848 L43.504,25.5573333 L43.5466667,25.5573333 L56.0053333,19.0293333 L68.464,25.5573333 L68.5066667,25.5573333" id="Shape" fill="#0FA7D5"></path>
            <rect id="Rectangle-path" fill="#087AA3" x="74.1386667" y="38.6133333" width="2.90133333" height="5.504"></rect>
            <rect id="Rectangle-path" fill="#087AA3" x="74.1386667" y="45.9946667" width="2.90133333" height="5.504"></rect>
            <rect id="Rectangle-path" fill="#087AA3" x="74.1386667" y="53.4186667" width="2.90133333" height="5.504"></rect>
            <rect id="Rectangle-path" fill="#087AA3" x="74.1386667" y="60.8" width="2.90133333" height="5.504"></rect>
            <rect id="Rectangle-path" fill="#087AA3" x="74.1386667" y="68.1813333" width="2.90133333" height="5.504"></rect>
            <rect id="Rectangle-path" fill="#087AA3" x="74.1386667" y="75.5626667" width="2.90133333" height="5.504"></rect>
            <path d="M43.504,33.92 L43.504,94.848 C38.4693333,93.7386667 33.7333333,91.8186667 29.4666667,89.2586667 L29.4666667,33.92 L43.504,33.92 Z" id="Shape" fill="#0B91C1"></path>
            <rect id="Rectangle-path" fill="#087AA3" x="35.0986667" y="38.6133333" width="2.90133333" height="5.504"></rect>
            <rect id="Rectangle-path" fill="#087AA3" x="35.0986667" y="45.9946667" width="2.90133333" height="5.504"></rect>
            <rect id="Rectangle-path" fill="#087AA3" x="35.0986667" y="53.4186667" width="2.90133333" height="5.504"></rect>
            <rect id="Rectangle-path" fill="#087AA3" x="35.0986667" y="60.8" width="2.90133333" height="5.504"></rect>
            <rect id="Rectangle-path" fill="#087AA3" x="35.0986667" y="68.1813333" width="2.90133333" height="5.504"></rect>
            <rect id="Rectangle-path" fill="#087AA3" x="35.0986667" y="75.5626667" width="2.90133333" height="5.504"></rect>
            <rect id="Rectangle-path" fill="#087AA3" x="48.9226667" y="36.608" width="14.208" height="2.90133333"></rect>
            <rect id="Rectangle-path" fill="#087AA3" x="48.9226667" y="42.4533333" width="14.208" height="2.90133333"></rect>
            <rect id="Rectangle-path" fill="#087AA3" x="48.9226667" y="48.2986667" width="14.208" height="2.90133333"></rect>
            <rect id="Rectangle-path" fill="#087AA3" x="48.9226667" y="54.1013333" width="14.208" height="2.90133333"></rect>
            <rect id="Rectangle-path" fill="#087AA3" x="48.9226667" y="59.9466667" width="14.208" height="2.90133333"></rect>
            <rect id="Rectangle-path" fill="#087AA3" x="48.9226667" y="65.792" width="14.208" height="2.90133333"></rect>
            <rect id="Rectangle-path" fill="#087AA3" x="48.9226667" y="71.6373333" width="14.208" height="2.90133333"></rect>
            <rect id="Rectangle-path" fill="#087AA3" x="48.9226667" y="77.44" width="14.208" height="2.90133333">
			</rect>
            <rect id="Rectangle-path" fill="#087AA3" x="48.9226667" y="83.2853333" width="14.208" height="2.90133333"></rect>
            <path d="M98.3733333,66.3466667 C95.0026667,74.4533333 89.4986667,81.4506667 82.544,86.6133333 C78.3626667,89.728 73.6266667,92.16 68.5493333,93.7813333 C68.5493333,93.7813333 68.5493333,93.7813333 68.5066667,93.7813333 C63.9413333,95.232 59.12,96 54.0853333,96 C50.4586667,96 46.9173333,95.616 43.5466667,94.848 L43.5466667,94.848 C38.8106667,93.7813333 34.3306667,92.032 30.2346667,89.6853333 C29.9786667,89.5573333 29.7653333,89.3866667 29.5093333,89.2586667 C28.528,88.6613333 27.5466667,88.064 26.608,87.3813333 C25.1146667,86.3573333 23.664,85.2053333 22.3413333,84.0106667 C22.2133333,83.8826667 22.0853333,83.7973333 21.9573333,83.6693333 C21.6586667,83.4133333 21.36,83.1146667 21.0613333,82.8586667 C18.7146667,80.64 16.624,78.208 14.7893333,75.6053333 C14.2773333,74.9226667 13.808,74.1973333 13.3813333,73.472 C14.1066667,73.344 14.832,73.2586667 15.6,73.2586667 C20.7626667,73.2586667 25.072,76.672 26.4373333,81.3653333 C28.4853333,79.0186667 31.5573333,77.5253333 34.928,77.5253333 C40.0906667,77.5253333 44.4426667,80.9813333 45.808,85.7173333 L46.32,85.7173333 C50.4586667,85.7173333 53.9146667,88.448 55.0666667,92.2026667 C56.2186667,91.264 57.712,90.6666667 59.3333333,90.6666667 C60.4,90.6666667 61.424,90.9226667 62.3626667,91.392 C64.5386667,88.7466667 67.824,87.04 71.4933333,87.04 L72.176,87.04 C73.9253333,80.9386667 79.5146667,76.5013333 86.1706667,76.5013333 C86.9386667,76.5013333 87.664,76.544 88.3893333,76.672 C88.3466667,76.288 88.304,75.9466667 88.304,75.5626667 C88.304,70.528 92.4,66.432 97.4346667,66.432 L98.3733333,66.432 L98.3733333,66.3466667 Z" id="Shape" fill="#7FDD97">
			</path>
        </g>
    </g>
</svg>
