<svg width="96px" height="96px" viewBox="0 0 96 96" version="1.1" xmlns="http://www.w3.org/2000/svg" xmlns:xlink="http://www.w3.org/1999/xlink">
    <!-- Generator: Sketch 41.2 (35397) - http://www.bohemiancoding.com/sketch -->
    <desc>Created with Sketch.</desc>
    <defs>
        <rect id="path-1" x="0.04621212" y="0.635709879" width="9.0488818" height="34.2009568"></rect>
    </defs>
    <g id="prod01" stroke="none" stroke-width="1" fill="none" fill-rule="evenodd">
        <ellipse id="Oval" fill="#65C5B2" cx="48" cy="48" rx="48" ry="48"></ellipse>
        <g id="Group" transform="translate(11.716535, 17.763780)">
            <rect id="Rectangle-path" fill="#F89F6A" x="8.73070866" y="0.151181102" width="55.1055118" height="60.1322835"></rect>
            <rect id="Rectangle-path" stroke="#FBFCFC" fill="#1D4872" x="20" y="30" width="12.623622" height="15.0866142"></rect>
            <g transform="translate(38.929134, 25.700787)">
                <rect id="Rectangle-path" fill="#58270E" x="0.302362205" y="0.34015748" width="17.2724409" height="34.280315"></rect>
                <rect id="Rectangle-path" fill="#8C4820" x="1.32283465" y="1.47401575" width="15.1937008" height="33.1464567"></rect>
                <ellipse id="Oval" fill="#58270E" cx="14.0976378" cy="18.0283465" rx="0.529133858" ry="0.566929134"></ellipse>
            </g>
            <g id="light" transform="translate(5.000000, 10.000000)">
			
                <mask id="mask-2" fill="white">
                    <use xlink:href="#path-1"></use>
                </mask>
                <use id="Rectangle-5" fill="#E9E9E9" xlink:href="#path-1">
				
				</use>
                <path d="M0.00156009241,5.34974826 L0.00156009241,3.74660541 C0.00156009241,2.83156195 2.04803127,1.70987064 2.96946496,1.19299647 C3.89089865,0.676122298 7.8026214,-1.48541203 8.98361552,-4 L8.98361552,-2.25518009 C9.00243691,-2.29272109 9.02071605,-2.33035837 9.03843611,-2.36808816 L9.03843611,2.32772574 C9.03843611,2.32772574 9.49201585,3.83535754 4.42136862,6.5905743 C-0.157440174,9.0785429 0.0006597018,9.70536643 0.0006597018,9.70536643 L0.0006597018,8.06915081 C5.19932331e-05,8.06499335 -0.000455861777,8.0577368 0.0006597018,8.04700555 L0.0006597018,5.37851726 C0.0006597018,5.36900621 0.000961590604,5.35941575 0.00156009241,5.34974826 Z M8.98361552,22.9265453 C7.8026214,25.4411333 3.89089865,27.6026676 2.96946496,28.1195418 C2.04803127,28.636416 0.00156009241,29.7581073 0.00156009241,30.6731507 L0.00156009241,35 C0.00156009241,35 -0.212260763,34.3731764 4.36654803,31.8852078 C9.43719526,29.129991 8.98361552,27.6223593 8.98361552,27.6223593 L8.98361552,22.9265453 Z M8.98361552,6.60742695 C7.8026214,9.12201491 3.89089865,11.2835492 2.96946496,11.8004234 C2.04803127,12.3172976 0.00156009241,13.4389889 0.00156009241,14.3540324 L0.00156009241,18.6808816 C0.00156009241,18.6808816 -0.212260763,18.054058 4.36654803,15.5660894 C9.43719526,12.8108726 8.98361552,11.3032409 8.98361552,11.3032409 L8.98361552,6.60742695 Z M9.03843611,14.7669861 C7.85744199,17.2815741 4.19312826,19.3852573 3.02428555,19.9599826 C1.85544284,20.534708 0.0006597018,21.7680847 0.0006597018,22.5135916 L0.0006597018,26.8404407 C0.0006597018,26.8404407 -0.157440174,26.2136172 4.42136862,23.7256486 C9.49201585,20.9704318 9.03843611,19.4628 9.03843611,19.4628 L9.03843611,14.7669861 Z" id="Combined-Shape" fill="rgba(121,121,121,0.5)" mask="url(#mask-2)">
				<animateTransform attributeName="transform"
                          attributeType="XML"
                          type="translate"
                          from="0 8"
                          to="0 0"
                          dur="0.6s"
                          repeatCount="indefinite"/>
				</path>
            </g>
            <rect id="Rectangle" fill="#FFFFFF" x="4.77613636" y="45" width="9.75" height="8.4" rx="1.61806543">
			
			</rect>
            <rect id="Rectangle" fill="#FFFFFF" x="4.77613636" y="10.6978395" width="9.75" height="3.48423424" rx="1.61806543"></rect>
            <g id="Shape" transform="translate(7.937008, 12.850394)" fill="#BCBFC2">
                <path d="M0.226771654,7.8992126 C0.226771654,9.37322835 1.32283465,10.5448819 2.68346457,10.5448819 L5.74488189,10.5448819 C7.10551181,10.5448819 8.2015748,9.37322835 8.2015748,7.8992126 L8.2015748,0.34015748 L0.226771654,0.34015748 L0.226771654,7.8992126 Z"></path>
                <path d="M16.2897638,7.8992126 C16.2897638,9.37322835 17.3858268,10.5448819 18.7464567,10.5448819 L21.807874,10.5448819 C23.1685039,10.5448819 24.2645669,9.37322835 24.2645669,7.8992126 L24.2645669,0.34015748 L16.2897638,0.34015748 L16.2897638,7.8992126 Z"></path>
                <path d="M32.3527559,7.8992126 C32.3527559,9.37322835 33.4488189,10.5448819 34.8094488,10.5448819 L37.8708661,10.5448819 C39.2314961,10.5448819 40.3275591,9.37322835 40.3275591,7.8992126 L40.3275591,0.34015748 L32.3527559,0.34015748 L32.3527559,7.8992126 Z"></path>
                <path d="M48.415748,0.34015748 L48.415748,7.8992126 C48.415748,9.37322835 49.511811,10.5448819 50.8724409,10.5448819 L53.9338583,10.5448819 C55.2944882,10.5448819 56.3905512,9.37322835 56.3905512,7.8992126 L56.3905512,0.34015748 L48.415748,0.34015748 Z"></path>
            </g>
            <path d="M0.151181102,20.7496063 C0.151181102,22.223622 1.24724409,23.3952756 2.60787402,23.3952756 L5.66929134,23.3952756 C7.02992126,23.3952756 8.12598425,22.223622 8.12598425,20.7496063 L8.12598425,13.1905512 L0.151181102,13.1905512 L0.151181102,20.7496063 Z" id="Shape" fill="#BF4028"></path>
            <path d="M16.2141732,20.7496063 C16.2141732,22.223622 17.3102362,23.3952756 18.6708661,23.3952756 L21.7322835,23.3952756 C23.0929134,23.3952756 24.1889764,22.223622 24.1889764,20.7496063 L24.1889764,13.1905512 L16.2141732,13.1905512 L16.2141732,20.7496063 Z" id="Shape" fill="#BF4028"></path>
            <path d="M32.2771654,20.7496063 C32.2771654,22.223622 33.3732283,23.3952756 34.7338583,23.3952756 L37.7952756,23.3952756 C39.1559055,23.3952756 40.2519685,22.223622 40.2519685,20.7496063 L40.2519685,13.1905512 L32.2771654,13.1905512 L32.2771654,20.7496063 Z" id="Shape" fill="#BF4028"></path>
            <path d="M48.3401575,20.7496063 C48.3401575,22.223622 49.4362205,23.3952756 50.7968504,23.3952756 L53.8582677,23.3952756 C55.2188976,23.3952756 56.3149606,22.223622 56.3149606,20.7496063 L56.3149606,13.1905512 L48.3401575,13.1905512 L48.3401575,20.7496063 Z" id="Shape" fill="#BF4028"></path>
            <path d="M64.4031496,13.1905512 L64.4031496,20.7496063 C64.4031496,22.223622 65.4992126,23.3952756 66.8598425,23.3952756 L69.9212598,23.3952756 C71.2818898,23.3952756 72.3779528,22.223622 72.3779528,20.7496063 L72.3779528,13.1905512 L64.4031496,13.1905512 Z" id="Shape" fill="#BF4028"></path>
            <polygon id="Shape" fill="#E65336" points="8.16377953 13.1905512 0.151181102 13.1905512 8.54173228 0.151181102 14.7023622 0.151181102"></polygon>
            <polygon id="Shape" fill="#EDF0F2" points="16.1385827 13.1905512 8.16377953 13.1905512 14.7023622 0.151181102 20.8251969 0.151181102"></polygon>
            <polygon id="Shape" fill="#E65336" points="24.2267717 13.1905512 16.2141732 13.1905512 20.9007874 0.151181102 27.023622 0.151181102"></polygon>
            <polygon id="Shape" fill="#EDF0F2" points="32.2015748 13.1905512 24.2267717 13.1905512 27.023622 0.151181102 33.1464567 0.151181102"></polygon>
            <polygon id="Shape" fill="#E65336" points="40.2897638 13.1905512 32.2771654 13.1905512 33.2220472 0.151181102 39.3448819 0.151181102"></polygon>
            <polygon id="Shape" fill="#EDF0F2" points="48.2645669 13.1905512 40.2897638 13.1905512 39.3448819 0.151181102 45.5055118 0.151181102"></polygon>
            <polygon id="Shape" fill="#E65336" points="56.3527559 13.1905512 48.3401575 13.1905512 45.5433071 0.151181102 51.6661417 0.151181102"></polygon>
            <polygon id="Shape" fill="#EDF0F2" points="64.3275591 13.1905512 56.3527559 13.1905512 51.703937 0.151181102 57.8267717 0.151181102"></polygon>
            <polygon id="Shape" fill="#E65336" points="72.415748 13.1905512 64.4031496 13.1905512 57.8645669 0.151181102 64.0251969 0.151181102"></polygon>
        </g>
    </g>
</svg>
