<?xml version="1.0" encoding="UTF-8" standalone="no"?>
<svg width="48px" height="48px" viewBox="0 0 48 48" version="1.1" xmlns="http://www.w3.org/2000/svg" xmlns:xlink="http://www.w3.org/1999/xlink">
    <!-- Generator: Sketch 41.2 (35397) - http://www.bohemiancoding.com/sketch -->
    <title>zeren</title>
    <desc>Created with Sketch.</desc>
    <defs></defs>
    <g id="Page-1" stroke="none" stroke-width="1" fill="none" fill-rule="evenodd">
        <g id="zeren" stroke-width="2">
            <g id="171" transform="translate(1.000000, 2.000000)">
                <g id="Layer_1">
                    <g id="Group">
                        <g stroke="#4A90E2">
                            <g>
                                <g>
                                    <circle id="Oval" cx="10" cy="5.8" r="5.3"></circle>
                                    <g transform="translate(0.000000, 9.000000)" id="Shape">
                                        <path d="M10,11.4 L0,11.4 C0,4.5 5.6,0.5 5.6,0.5"></path>
                                        <path d="M10,11.4 L20,11.4 C20,4.5 14.4,0.5 14.4,0.5"></path>
                                    </g>
                                </g>
                                <g transform="translate(26.000000, 0.000000)">
                                    <circle id="Oval" cx="10" cy="5.8" r="5.3"></circle>
                                    <g transform="translate(0.000000, 9.000000)" id="Shape">
                                        <path d="M10,11.4 L0,11.4 C0,4.5 5.6,0.5 5.6,0.5"></path>
                                        <path d="M10,11.4 L20,11.4 C20,4.5 14.4,0.5 14.4,0.5"></path>
                                    </g>
                                </g>
                            </g>
                            <g transform="translate(13.000000, 23.000000)">
                                <circle id="Oval" cx="10" cy="5.9" r="5.3"></circle>
                                <g transform="translate(0.000000, 9.000000)" id="Shape">
                                    <path d="M10,11.5 L0,11.5 C0,4.6 5.6,0.6 5.6,0.6"></path>
                                    <path d="M10,11.5 L20,11.5 C20,4.6 14.4,0.6 14.4,0.6"></path>
                                </g>
                            </g>
                        </g>
                        <path d="M9.5,41.1 C5.6,38.4 3,33.8 3,28.7 C3,27.1 3.3,25.5 3.8,24" id="Shape" stroke="#4990E2"></path>
                        <path d="M42.1,23 C42.6,24.5 42.9,26.1 42.9,27.7 C42.9,32.8 40.3,37.4 36.4,40.1" id="Shape" stroke="#4990E2"></path>
                        <path d="M19,6.5 C20.3953488,5.6 21.8604651,5 23.5348837,5 C25.1395349,5 26.6744186,5.5 28,6.4" id="Shape" stroke="#4990E2"></path>
                    </g>
                </g>
            </g>
        </g>
    </g>
</svg>