<?xml version="1.0" encoding="UTF-8" standalone="no"?>
<svg width="48px" height="48px" viewBox="0 0 48 48" version="1.1" xmlns="http://www.w3.org/2000/svg" xmlns:xlink="http://www.w3.org/1999/xlink">
    <!-- Generator: Sketch 41.2 (35397) - http://www.bohemiancoding.com/sketch -->
    <title>zrfj</title>
    <desc>Created with Sketch.</desc>
    <defs></defs>
    <g id="Page-1" stroke="none" stroke-width="1" fill="none" fill-rule="evenodd">
        <g id="zrfj">
            <g id="171-copy" transform="translate(1.000000, 2.000000)" stroke-width="2">
                <g id="Layer_1">
                    <g id="Group">
                        <g stroke="#4A90E2">
                            <g>
                                <g>
                                    <circle id="Oval" cx="10" cy="5.8" r="5.3"></circle>
                                    <g transform="translate(0.000000, 9.000000)" id="Shape">
                                        <path d="M10,11.4 L0,11.4 C0,4.5 5.6,0.5 5.6,0.5"></path>
                                        <path d="M10,11.4 L20,11.4 C20,4.5 14.4,0.5 14.4,0.5"></path>
                                    </g>
                                </g>
                                <g transform="translate(26.000000, 0.000000)">
                                    <circle id="Oval" cx="10" cy="5.8" r="5.3"></circle>
                                    <g transform="translate(0.000000, 9.000000)" id="Shape">
                                        <path d="M10,11.4 L0,11.4 C0,4.5 5.6,0.5 5.6,0.5"></path>
                                        <path d="M10,11.4 L20,11.4 C20,4.5 14.4,0.5 14.4,0.5"></path>
                                    </g>
                                </g>
                            </g>
                            <g transform="translate(13.000000, 23.000000)">
                                <circle id="Oval" cx="10" cy="5.9" r="5.3"></circle>
                                <g transform="translate(0.000000, 9.000000)" id="Shape">
                                    <path d="M10,11.5 L0,11.5 C0,4.6 5.6,0.6 5.6,0.6"></path>
                                    <path d="M10,11.5 L20,11.5 C20,4.6 14.4,0.6 14.4,0.6"></path>
                                </g>
                            </g>
                        </g>
                        <path d="M9.5,41.1 C5.6,38.4 3,33.8 3,28.7 C3,27.1 3.3,25.5 3.8,24" id="Shape" stroke="#4990E2"></path>
                        <path d="M19,6.5 C20.3953488,5.6 21.8604651,5 23.5348837,5 C25.1395349,5 26.6744186,5.5 28,6.4" id="Shape" stroke="#4990E2"></path>
                    </g>
                </g>
            </g>
            <polygon id="＋" fill="#4A90E2" points="39.71 29 39.71 32.85 36 32.85 36 34.166 39.71 34.166 39.71 38.016 41.026 38.016 41.026 34.166 44.736 34.166 44.736 32.85 41.026 32.85 41.026 29"></polygon>
        </g>
    </g>
</svg>